<?xml version="1.0" encoding="UTF-8" standalone="no"?>
<svg
   width="195"
   height="380"
   viewBox="0 0 195 380"
   version="1.1"
   id="svg82"
   sodipodi:docname="Lua.svg"
   inkscape:version="1.3.2 (091e20e, 2023-11-25, custom)"
   xmlns:inkscape="http://www.inkscape.org/namespaces/inkscape"
   xmlns:sodipodi="http://sodipodi.sourceforge.net/DTD/sodipodi-0.dtd"
   xmlns:xlink="http://www.w3.org/1999/xlink"
   xmlns="http://www.w3.org/2000/svg"
   xmlns:svg="http://www.w3.org/2000/svg">
  <sodipodi:namedview
     id="namedview82"
     pagecolor="#ffffff"
     bordercolor="#000000"
     borderopacity="0.25"
     inkscape:showpageshadow="2"
     inkscape:pageopacity="0.0"
     inkscape:pagecheckerboard="0"
     inkscape:deskcolor="#d1d1d1"
     inkscape:zoom="2.1447368"
     inkscape:cx="13.98773"
     inkscape:cy="168.08589"
     inkscape:window-width="1920"
     inkscape:window-height="1011"
     inkscape:window-x="-8"
     inkscape:window-y="-2"
     inkscape:window-maximized="1"
     inkscape:current-layer="svg82"
     showguides="true"
     inkscape:document-units="px">
    <sodipodi:guide
       position="97.5,310.99386"
       orientation="-1,0"
       id="guide3"
       inkscape:locked="false"
       inkscape:label=""
       inkscape:color="rgb(0,134,229)" />
  </sodipodi:namedview>
  <defs
     id="defs2">
    <rect
       x="-78.33129"
       y="130.08589"
       width="5.1288345"
       height="20.04908"
       id="rect7" />
    <rect
       x="86.72393"
       y="-11.889571"
       width="19.815952"
       height="38.23313"
       id="rect6" />
    <rect
       x="88.687677"
       y="5.4399504"
       width="36.925724"
       height="23.737966"
       id="rect5" />
    <rect
       x="55.950921"
       y="12.1227"
       width="38.699387"
       height="16.319019"
       id="rect3" />
    <rect
       x="62.944787"
       y="10.257669"
       width="48.490798"
       height="17.251534"
       id="rect1" />
    <linearGradient
       id="uuid-312421cb-ec79-48d0-8ea6-e8b674b74575"
       x1="97.50002"
       y1="0"
       x2="97.50002"
       y2="380"
       gradientUnits="userSpaceOnUse">
      <stop
         offset="0"
         stop-color="#2a2a2b"
         id="stop1"
         style="stop-color:#2c2c2f;stop-opacity:1;" />
      <stop
         offset="1"
         stop-color="#171717"
         id="stop2"
         style="stop-color:#3d3d3d;stop-opacity:1;" />
    </linearGradient>
    <linearGradient
       inkscape:collect="always"
       xlink:href="#uuid-312421cb-ec79-48d0-8ea6-e8b674b74575"
       id="linearGradient7"
       x1="97.589417"
       y1="1.9781655"
       x2="97.589424"
       y2="377.82932"
       gradientUnits="userSpaceOnUse"
       spreadMethod="reflect" />
  </defs>
  <rect
     x=".00004"
     width="194.99996"
     height="380"
     fill="url(#uuid-312421cb-ec79-48d0-8ea6-e8b674b74575)"
     id="rect2"
     inkscape:label="Background rectangle"
     style="fill:url(#linearGradient7);fill-opacity:1" />
  <text
     xml:space="preserve"
     style="font-style:normal;font-variant:normal;font-weight:bold;font-stretch:normal;font-size:13.3333px;font-family:'Cascadia Code';-inkscape-font-specification:'Cascadia Code Bold';letter-spacing:0px;word-spacing:-4px;display:none;fill:#d7e1f0;fill-opacity:1;stroke:#808080;stroke-width:0.5;stroke-linejoin:bevel;stroke-dasharray:none;stroke-opacity:0.497409"
     x="71.386505"
     y="17.970028"
     id="text8-6"
     inkscape:label="Top text"><tspan
       sodipodi:role="line"
       id="tspan8"
       x="71.386505"
       y="17.970028"
       style="font-style:normal;font-variant:normal;font-weight:bold;font-stretch:normal;font-size:13.3333px;font-family:'DejaVu Sans Mono';-inkscape-font-specification:'DejaVu Sans Mono Bold';letter-spacing:0px;word-spacing:-4px;fill:#d7e1f0;fill-opacity:1;stroke:#808080;stroke-width:0.5;stroke-linecap:round;stroke-linejoin:round;stroke-dasharray:none;stroke-opacity:0.497409"
       dx="0">Lua Box</tspan></text>
  <path
     style="font-weight:bold;font-size:13.3333px;font-family:'DejaVu Sans Mono';-inkscape-font-specification:'DejaVu Sans Mono Bold';letter-spacing:0px;word-spacing:-4px;fill:#d7e1f0;stroke:#808080;stroke-width:0.5;stroke-linecap:round;stroke-linejoin:round;stroke-opacity:0.497409"
     d="M 72.851345,17.970028 V 8.2500004 h 1.920568 v 8.0273236 h 4.108063 v 1.692704 z m 7.604148,-2.545567 V 10.67838 h 1.907547 v 4.453113 q 0,0.787759 0.221354,1.1263 0.221353,0.33854 0.735675,0.33854 0.514322,0 0.800779,-0.455728 0.292968,-0.455728 0.292968,-1.276038 V 10.67838 h 1.907547 v 7.291648 h -1.907547 v -1.080727 q -0.201822,0.605468 -0.690102,0.937498 -0.48177,0.332031 -1.165362,0.332031 -1.041664,0 -1.575517,-0.690103 -0.527342,-0.690102 -0.527342,-2.044266 z m 11.54294,-0.878904 q -1.067706,0 -1.490882,0.273437 -0.423176,0.273437 -0.423176,0.937498 0,0.49479 0.292968,0.787758 0.292968,0.292968 0.794269,0.292968 0.755206,0 1.171872,-0.566405 0.416666,-0.572915 0.416666,-1.595048 v -0.130208 z m 2.656243,-0.735675 v 4.160146 H 92.76015 v -0.8138 q -0.345052,0.48177 -0.885415,0.742186 -0.540363,0.260416 -1.191403,0.260416 -1.243487,0 -1.940099,-0.657551 -0.690103,-0.65755 -0.690103,-1.835933 0,-1.276038 0.826821,-1.881505 0.826821,-0.611978 2.558587,-0.611978 h 1.321612 v -0.31901 q 0,-0.462238 -0.338541,-0.696612 -0.332031,-0.240885 -0.983071,-0.240885 -0.683592,0 -1.328121,0.175781 -0.63802,0.16927 -1.334632,0.546873 v -1.6276 q 0.631508,-0.260416 1.282548,-0.384114 0.65104,-0.123697 1.380205,-0.123697 1.77734,0 2.493484,0.722654 0.722654,0.722655 0.722654,2.584629 z m 7.510384,-0.253905 v 2.877596 h 1.27604 q 0.91797,0 1.28255,-0.312499 0.37109,-0.312499 0.37109,-1.087237 0,-0.787758 -0.38411,-1.132809 -0.38411,-0.345051 -1.26953,-0.345051 z m 0,-3.7890533 v 2.2591093 h 1.27604 q 0.72917,0 1.03516,-0.260416 0.3125,-0.260416 0.3125,-0.859373 0,-0.598957 -0.31901,-0.865884 -0.3125,-0.2734363 -1.02865,-0.2734363 z M 100.3096,8.2369796 h 3.1315 q 1.62109,0 2.43489,0.618488 0.82031,0.6119776 0.82031,1.8359324 0,0.937498 -0.48177,1.464841 -0.48177,0.527342 -1.41275,0.611977 1.11327,0.110677 1.67317,0.748696 0.5664,0.638019 0.5664,1.78385 0,1.406246 -0.84635,2.037755 -0.84635,0.631509 -2.7539,0.631509 h -3.1315 z m 11.22393,3.8150944 q -0.68359,0 -1.07421,0.605467 -0.39063,0.598957 -0.39063,1.673173 0,1.074216 0.39063,1.679683 0.39062,0.598957 1.07421,0.598957 0.6901,0 1.08073,-0.598957 0.39062,-0.605467 0.39062,-1.679683 0,-1.074216 -0.39062,-1.673173 -0.39063,-0.605467 -1.08073,-0.605467 z m -3.37239,2.27864 q 0,-1.764318 0.91146,-2.792961 0.91797,-1.035154 2.46093,-1.035154 1.54948,0 2.46093,1.035154 0.91797,1.028643 0.91797,2.792961 0,1.764319 -0.91797,2.799472 -0.91145,1.028644 -2.46093,1.028644 -1.54296,0 -2.46093,-1.028644 -0.91146,-1.035153 -0.91146,-2.799472 z m 14.84371,-3.652334 -2.45442,3.489574 2.66927,3.802074 h -2.22656 l -1.43229,-2.454421 -1.42578,2.454421 h -2.22655 l 2.6953,-3.802074 -2.48046,-3.489574 h 2.22656 l 1.21093,2.174473 1.21745,-2.174473 z"
     id="text3"
     inkscape:label="Top text"
     aria-label="Lua Box" />
  <rect
     style="fill:#d7e1f0;fill-opacity:1;stroke:#ffffff;stroke-width:0;stroke-linecap:round;stroke-linejoin:round;stroke-dasharray:none;stroke-opacity:0.49740899"
     id="rect4"
     width="29.515736"
     height="242.51573"
     x="156.24213"
     y="113.24213"
     ry="4.4163933"
     inkscape:label="Output rectangle" />
  <g
     id="g9"
     transform="translate(41.66677,102.03074)"
     inkscape:label="Knob">
    <path
       d="M 12.21051,246.15346 C 10.04891,243.99186 8.83323,241.05697 8.83323,238 c 0,-6.32558 5.20516,-11.53074 11.53074,-11.53074 6.32558,0 11.53074,5.20516 11.53074,11.53074 0,3.05697 -1.21567,5.99186 -3.37728,8.15346"
       fill="none"
       stroke="#ededed"
       stroke-linecap="round"
       stroke-linejoin="round"
       id="path8"
       inkscape:label="path1"
       style="stroke:#d7e1f0;stroke-opacity:1" />
  </g>
  <g
     id="g8"
     transform="translate(41.66677,72.03074)"
     inkscape:label="Knob">
    <path
       d="M 12.21051,246.15346 C 10.04891,243.99186 8.83323,241.05697 8.83323,238 c 0,-6.32558 5.20516,-11.53074 11.53074,-11.53074 6.32558,0 11.53074,5.20516 11.53074,11.53074 0,3.05697 -1.21567,5.99186 -3.37728,8.15346"
       fill="none"
       stroke="#ededed"
       stroke-linecap="round"
       stroke-linejoin="round"
       id="path7"
       inkscape:label="path1"
       style="stroke:#d7e1f0;stroke-opacity:1" />
  </g>
  <g
     id="g6"
     transform="translate(41.66677,42.03074)"
     inkscape:label="Knob">
    <path
       d="M 12.21051,246.15346 C 10.04891,243.99186 8.83323,241.05697 8.83323,238 c 0,-6.32558 5.20516,-11.53074 11.53074,-11.53074 6.32558,0 11.53074,5.20516 11.53074,11.53074 0,3.05697 -1.21567,5.99186 -3.37728,8.15346"
       fill="none"
       stroke="#ededed"
       stroke-linecap="round"
       stroke-linejoin="round"
       id="path6"
       inkscape:label="path1"
       style="stroke:#d7e1f0;stroke-opacity:1" />
  </g>
  <g
     id="g5"
     transform="translate(41.66677,12.03074)"
     inkscape:label="Knob">
    <path
       d="M 12.21051,246.15346 C 10.04891,243.99186 8.83323,241.05697 8.83323,238 c 0,-6.32558 5.20516,-11.53074 11.53074,-11.53074 6.32558,0 11.53074,5.20516 11.53074,11.53074 0,3.05697 -1.21567,5.99186 -3.37728,8.15346"
       fill="none"
       stroke="#ededed"
       stroke-linecap="round"
       stroke-linejoin="round"
       id="path5"
       inkscape:label="path1"
       style="stroke:#d7e1f0;stroke-opacity:1" />
  </g>
  <g
     id="g4"
     transform="translate(41.66677,-17.96926)"
     inkscape:label="Knob">
    <path
       d="M 12.21051,246.15346 C 10.04891,243.99186 8.83323,241.05697 8.83323,238 c 0,-6.32558 5.20516,-11.53074 11.53074,-11.53074 6.32558,0 11.53074,5.20516 11.53074,11.53074 0,3.05697 -1.21567,5.99186 -3.37728,8.15346"
       fill="none"
       stroke="#ededed"
       stroke-linecap="round"
       stroke-linejoin="round"
       id="path4"
       inkscape:label="path1"
       style="stroke:#d7e1f0;stroke-opacity:1" />
  </g>
  <g
     id="g2"
     transform="translate(41.66677,-47.96926)"
     inkscape:label="Knob">
    <path
       d="M 12.21051,246.15346 C 10.04891,243.99186 8.83323,241.05697 8.83323,238 c 0,-6.32558 5.20516,-11.53074 11.53074,-11.53074 6.32558,0 11.53074,5.20516 11.53074,11.53074 0,3.05697 -1.21567,5.99186 -3.37728,8.15346"
       fill="none"
       stroke="#ededed"
       stroke-linecap="round"
       stroke-linejoin="round"
       id="path2"
       inkscape:label="path1"
       style="stroke:#d7e1f0;stroke-opacity:1" />
  </g>
  <g
     id="g3"
     transform="translate(41.66677,-77.96926)"
     inkscape:label="Knob">
    <path
       d="M 12.21051,246.15346 C 10.04891,243.99186 8.83323,241.05697 8.83323,238 c 0,-6.32558 5.20516,-11.53074 11.53074,-11.53074 6.32558,0 11.53074,5.20516 11.53074,11.53074 0,3.05697 -1.21567,5.99186 -3.37728,8.15346"
       fill="none"
       stroke="#ededed"
       stroke-linecap="round"
       stroke-linejoin="round"
       id="path1"
       inkscape:label="path1"
       style="stroke:#d7e1f0;stroke-opacity:1" />
  </g>
  <g
     id="g7"
     transform="translate(41.66677,-107.96926)"
     inkscape:label="Knob">
    <path
       d="M 12.21051,246.15346 C 10.04891,243.99186 8.83323,241.05697 8.83323,238 c 0,-6.32558 5.20516,-11.53074 11.53074,-11.53074 6.32558,0 11.53074,5.20516 11.53074,11.53074 0,3.05697 -1.21567,5.99186 -3.37728,8.15346"
       fill="none"
       stroke="#ededed"
       stroke-linecap="round"
       stroke-linejoin="round"
       id="path3"
       inkscape:label="path1"
       style="stroke:#d7e1f0;stroke-opacity:1" />
  </g>
  <g
     id="uuid-86d65800-ac52-4178-bf75-1b356ffb82cf"
     data-name="FND TXT"
     transform="translate(1.9234641,69.151437)"
     style="display:none"
     inkscape:label="Knob symbols">
    <path
       d="m 53.20703,40.46777 c 0,-0.26367 0.2168,-0.47949 0.47266,-0.47949 h 1.50293 c 0.25586,0 0.47168,0.21582 0.47168,0.47949 0,0.25586 -0.21582,0.47168 -0.47168,0.47168 h -1.50293 c -0.25586,0 -0.47266,-0.21582 -0.47266,-0.47168 z"
       fill="#ebebeb"
       id="path44" />
    <path
       d="m 66.0918,40.92871 h -1.13477 c -0.24023,0 -0.43945,-0.19141 -0.43945,-0.43945 0,-0.23975 0.19922,-0.43945 0.43945,-0.43945 h 1.13477 v -1.11182 c 0,-0.25586 0.2002,-0.45557 0.45605,-0.45557 0.24805,0 0.45605,0.19971 0.45605,0.45557 v 1.11182 h 1.13477 c 0.24023,0 0.44043,0.19971 0.44043,0.43945 0,0.24805 -0.2002,0.43945 -0.44043,0.43945 H 67.0039 v 1.11182 c 0,0.25586 -0.20801,0.45557 -0.45605,0.45557 -0.25586,0 -0.45605,-0.19971 -0.45605,-0.45557 z"
       fill="#ebebeb"
       id="path45"
       style="stroke-width:1.00157;stroke-dasharray:none" />
    <line
       x1="60.107876"
       y1="38.34935"
       x2="60.107876"
       y2="42.249527"
       fill="none"
       stroke="#ededed"
       stroke-linecap="round"
       stroke-linejoin="round"
       id="line3-6"
       inkscape:label="line1"
       style="stroke-width:1.00157;stroke-dasharray:none" />
  </g>
  <text
     xml:space="preserve"
     style="font-size:8px;font-family:'DejaVu Sans Mono';-inkscape-font-specification:'DejaVu Sans Mono';letter-spacing:0px;display:none;fill:#d7e1f0;fill-opacity:1;stroke:#d9d9d9;stroke-width:1.00157;stroke-linecap:round;stroke-linejoin:bevel;stroke-opacity:0.497409"
     x="28.942211"
     y="73.622093"
     id="text1"
     inkscape:label="Label text 1"><tspan
       sodipodi:role="line"
       id="tspan1"
       x="28.942211"
       y="73.622093"
       style="font-size:8px;fill:#d7e1f0;fill-opacity:1;stroke:#d9d9d9;stroke-opacity:0.497409">Reload</tspan></text>
  <text
     xml:space="preserve"
     style="font-size:8px;font-family:'DejaVu Sans Mono';-inkscape-font-specification:'DejaVu Sans Mono';letter-spacing:0px;display:none;fill:#d7e1f0;fill-opacity:1;stroke:#d9d9d9;stroke-width:1.00157;stroke-linecap:round;stroke-linejoin:bevel;stroke-opacity:0.497409"
     x="82.942215"
     y="73.622093"
     id="text1-6"
     inkscape:label="Label text 2"><tspan
       sodipodi:role="line"
       id="tspan1-4"
       x="82.942215"
       y="73.622093"
       style="font-size:8px;fill:#d7e1f0;fill-opacity:1;stroke:#d9d9d9;stroke-opacity:0.497409">Status</tspan></text>
  <text
     xml:space="preserve"
     style="font-size:8px;font-family:'DejaVu Sans Mono';-inkscape-font-specification:'DejaVu Sans Mono';letter-spacing:0px;display:none;fill:#d7e1f0;fill-opacity:1;stroke:#d9d9d9;stroke-width:1.00157;stroke-linecap:round;stroke-linejoin:bevel;stroke-opacity:0.497409"
     x="142.94218"
     y="73.66507"
     id="text1-9-4"
     inkscape:label="Label text 3"><tspan
       sodipodi:role="line"
       id="tspan1-7-0"
       x="142.94218"
       y="73.66507"
       style="font-size:8px;fill:#d7e1f0;fill-opacity:1;stroke:#d9d9d9;stroke-linecap:butt;stroke-linejoin:miter;stroke-opacity:0.497409">Run</tspan></text>
  <path
     d="m 31.910941,70.867961 q 0.304688,0.0781 0.519531,0.296878 0.214844,0.21484 0.535157,0.863276 l 0.792968,1.593744 h -0.847656 l -0.695312,-1.472654 q -0.300782,-0.628908 -0.542969,-0.808586 -0.238281,-0.1836 -0.625,-0.1836 h -0.753906 v 2.46484 h -0.792969 v -5.832006 h 1.625 q 0.960937,0 1.472656,0.433588 0.511719,0.433588 0.511719,1.253906 0,0.578116 -0.316406,0.945306 -0.3125,0.363278 -0.882813,0.445308 z m -1.617187,-2.42968 v 2.070312 h 0.863281 q 0.566406,0 0.84375,-0.25391 0.277344,-0.253908 0.277344,-0.777336 0,-0.503908 -0.296875,-0.769538 -0.292969,-0.269528 -0.855469,-0.269528 z m 7.808593,2.816398 v 0.351558 h -3.113281 v 0.0234 q 0,0.714838 0.371094,1.105466 0.375,0.390618 1.054687,0.390618 0.34375,0 0.71875,-0.10937 0.375,-0.10938 0.800782,-0.332028 v 0.714836 q -0.410157,0.16797 -0.792969,0.25 -0.378906,0.0859 -0.734375,0.0859 -1.019531,0 -1.59375,-0.609378 -0.574219,-0.613278 -0.574219,-1.687492 0,-1.046866 0.5625,-1.671864 0.5625,-0.624998 1.5,-0.624998 0.835938,0 1.316406,0.566398 0.484375,0.566408 0.484375,1.546874 z m -0.71875,-0.21094 q -0.01563,-0.632806 -0.300781,-0.960936 -0.28125,-0.332028 -0.8125,-0.332028 -0.519531,0 -0.855469,0.343748 -0.335937,0.34375 -0.398437,0.953126 z m 3.6875,0.992186 q 0,0.484368 0.175782,0.730468 0.179687,0.246088 0.527343,0.246088 h 0.839844 v 0.609378 H 41.70391 q -0.644531,0 -1,-0.414068 -0.351563,-0.414058 -0.351563,-1.171866 v -3.972642 h -1.152343 v -0.562498 h 1.871093 z m 4.726563,-2.28515 q -0.546875,0 -0.828125,0.425778 -0.28125,0.425788 -0.28125,1.261716 0,0.832026 0.28125,1.261714 0.28125,0.425778 0.828125,0.425778 0.550781,0 0.832031,-0.425778 0.28125,-0.429688 0.28125,-1.261714 0,-0.835928 -0.28125,-1.261716 -0.28125,-0.425778 -0.832031,-0.425778 z m 0,-0.609368 q 0.910156,0 1.390625,0.589838 0.484375,0.589848 0.484375,1.707024 0,1.121094 -0.480469,1.710932 -0.480469,0.585938 -1.394531,0.585938 -0.910156,0 -1.390625,-0.585938 -0.480469,-0.589838 -0.480469,-1.710932 0,-1.117176 0.480469,-1.707024 0.480469,-0.589838 1.390625,-0.589838 z m 5.152344,2.281242 h -0.238282 q -0.628906,0 -0.949218,0.222648 -0.316407,0.21875 -0.316407,0.656248 0,0.394538 0.238282,0.613286 0.238281,0.21875 0.660156,0.21875 0.59375,0 0.933594,-0.410158 0.339843,-0.414058 0.34375,-1.140626 v -0.160148 z m 1.394531,-0.29688 v 2.49609 h -0.722656 v -0.648438 q -0.230469,0.390618 -0.582032,0.578118 -0.347656,0.1836 -0.847656,0.1836 -0.667969,0 -1.066406,-0.375 -0.398438,-0.378908 -0.398438,-1.011714 0,-0.730468 0.488282,-1.109376 0.492187,-0.378898 1.441406,-0.378898 h 0.964844 v -0.11328 q -0.0039,-0.523438 -0.265625,-0.757816 -0.261719,-0.23828 -0.835938,-0.23828 -0.367187,0 -0.742187,0.10547 -0.375,0.10547 -0.730469,0.308598 v -0.718746 q 0.398437,-0.15235 0.761719,-0.22657 0.367187,-0.0781 0.710937,-0.0781 0.542969,0 0.925781,0.16015 0.386719,0.16016 0.625,0.480468 0.148438,0.19532 0.210938,0.484378 0.0625,0.285148 0.0625,0.859366 z m 4.03125,-1.320304 v -2.26171 h 0.71875 v 6.078104 h -0.71875 v -0.550778 q -0.179688,0.324208 -0.480469,0.496088 -0.296875,0.16797 -0.6875,0.16797 -0.792969,0 -1.25,-0.613278 -0.453125,-0.617188 -0.453125,-1.699212 0,-1.066406 0.457031,-1.671874 0.457032,-0.609368 1.246094,-0.609368 0.394531,0 0.695313,0.17187 0.300781,0.16797 0.472656,0.492188 z m -2.113281,1.632804 q 0,0.835936 0.265625,1.261714 0.265625,0.425778 0.785156,0.425778 0.519531,0 0.789062,-0.429678 0.273438,-0.429688 0.273438,-1.257814 0,-0.832028 -0.273438,-1.257806 -0.269531,-0.429688 -0.789062,-0.429688 -0.519531,0 -0.785156,0.425778 -0.265625,0.425788 -0.265625,1.261716 z"
     id="text1-9"
     style="font-size:8px;font-family:'DejaVu Sans Mono';-inkscape-font-specification:'DejaVu Sans Mono';letter-spacing:0px;fill:#d7e1f0;fill-opacity:1;stroke:#d9d9d9;stroke-width:1.00157;stroke-linecap:round;stroke-linejoin:bevel;stroke-opacity:0.497409"
     inkscape:label="Label text 1 path"
     aria-label="Reload" />
  <path
     d="m 86.89534,67.989281 v 0.800781 q -0.359375,-0.230469 -0.722656,-0.347656 -0.359375,-0.117188 -0.726563,-0.117188 -0.558594,0 -0.882812,0.261719 -0.324219,0.257812 -0.324219,0.699219 0,0.386718 0.210937,0.589843 0.214844,0.203125 0.796875,0.339844 l 0.414063,0.09375 q 0.820312,0.191406 1.195312,0.601563 0.375,0.410156 0.375,1.117187 0,0.832031 -0.515625,1.269531 -0.515625,0.4375 -1.5,0.4375 -0.410156,0 -0.824218,-0.08984 -0.414063,-0.08594 -0.832032,-0.261719 v -0.839844 q 0.449219,0.285156 0.847657,0.417969 0.402343,0.132812 0.808593,0.132812 0.597657,0 0.929688,-0.265625 0.332031,-0.269531 0.332031,-0.75 0,-0.4375 -0.230469,-0.667968 -0.226562,-0.230469 -0.792968,-0.355469 l -0.421875,-0.09766 q -0.8125,-0.183594 -1.179688,-0.554688 -0.367187,-0.371094 -0.367187,-0.996094 0,-0.78125 0.523437,-1.25 0.527344,-0.472656 1.398438,-0.472656 0.335937,0 0.707031,0.07813 0.371094,0.07422 0.78125,0.226563 z m 3.261719,0.01563 v 1.242187 h 1.632812 v 0.558594 h -1.632812 v 2.375 q 0,0.484375 0.183593,0.675781 0.183594,0.191406 0.640625,0.191406 h 0.808594 v 0.574219 h -0.878906 q -0.808594,0 -1.140625,-0.324219 -0.332031,-0.324218 -0.332031,-1.117187 v -2.375 H 88.27034 v -0.558594 h 1.167969 v -1.242187 z m 5.160156,3.417968 h -0.238281 q -0.628907,0 -0.949219,0.222657 -0.316406,0.21875 -0.316406,0.65625 0,0.394531 0.238281,0.613281 0.238281,0.21875 0.660156,0.21875 0.59375,0 0.933594,-0.410156 0.339844,-0.414063 0.34375,-1.140625 v -0.160157 z m 1.394531,-0.296875 v 2.496094 H 95.98909 v -0.648437 q -0.230469,0.390625 -0.582031,0.578125 -0.347657,0.183593 -0.847657,0.183593 -0.667968,0 -1.066406,-0.375 -0.398437,-0.378906 -0.398437,-1.011718 0,-0.730469 0.488281,-1.109375 0.492187,-0.378907 1.441406,-0.378907 h 0.964844 v -0.113281 q -0.0039,-0.523437 -0.265625,-0.757812 -0.261719,-0.238282 -0.835938,-0.238282 -0.367187,0 -0.742187,0.105469 -0.375,0.105469 -0.730469,0.308594 v -0.71875 q 0.398438,-0.152344 0.761719,-0.226563 0.367187,-0.07813 0.710937,-0.07813 0.542969,0 0.925782,0.160157 0.386718,0.160156 0.625,0.480468 0.148437,0.195313 0.210937,0.484375 0.0625,0.285157 0.0625,0.859375 z m 3.078125,-3.121093 v 1.242187 h 1.632809 v 0.558594 h -1.632809 v 2.375 q 0,0.484375 0.183594,0.675781 0.183595,0.191406 0.640625,0.191406 h 0.80859 v 0.574219 h -0.8789 q -0.808596,0 -1.140628,-0.324219 -0.332031,-0.324218 -0.332031,-1.117187 v -2.375 h -1.167969 v -0.558594 h 1.167969 v -1.242187 z m 3.179689,3.960937 v -2.710937 h 0.71875 v 2.710937 q 0,0.589844 0.20703,0.867188 0.21094,0.277343 0.64844,0.277343 0.50781,0 0.77734,-0.355468 0.26953,-0.359375 0.26953,-1.027344 v -2.472656 h 0.72266 v 4.367187 h -0.72266 v -0.65625 q -0.1914,0.378906 -0.52344,0.574219 -0.32812,0.195312 -0.76953,0.195312 -0.67187,0 -1,-0.4375 -0.32812,-0.441406 -0.32812,-1.332031 z m 7.85547,-2.566406 v 0.703125 q -0.3086,-0.179688 -0.6211,-0.269531 -0.3125,-0.08984 -0.63672,-0.08984 -0.48828,0 -0.73046,0.160156 -0.23829,0.15625 -0.23829,0.480469 0,0.292969 0.17969,0.4375 0.17969,0.144531 0.89453,0.28125 l 0.28907,0.05469 q 0.53515,0.101563 0.80859,0.40625 0.27734,0.304688 0.27734,0.792969 0,0.648438 -0.46093,1.015625 -0.46094,0.363281 -1.28125,0.363281 -0.32422,0 -0.67969,-0.07031 -0.35547,-0.06641 -0.76953,-0.203125 v -0.742188 q 0.40234,0.207032 0.76953,0.3125 0.36719,0.101563 0.69531,0.101563 0.47656,0 0.73828,-0.191406 0.26172,-0.195313 0.26172,-0.542969 0,-0.5 -0.95703,-0.691406 l -0.0312,-0.0078 -0.26953,-0.05469 q -0.6211,-0.121094 -0.90625,-0.40625 -0.28516,-0.289063 -0.28516,-0.785157 0,-0.628906 0.42578,-0.96875 0.42578,-0.34375 1.21485,-0.34375 0.35156,0 0.67578,0.06641 0.32422,0.0625 0.63672,0.191406 z"
     id="text1-6-5"
     style="font-size:8px;font-family:'DejaVu Sans Mono';-inkscape-font-specification:'DejaVu Sans Mono';letter-spacing:0px;fill:#d7e1f0;stroke:#d9d9d9;stroke-width:1.00157;stroke-linecap:round;stroke-linejoin:bevel;stroke-opacity:0.497409"
     inkscape:label="Label text 2 path"
     aria-label="Status" />
  <path
     style="font-size:8px;font-family:'DejaVu Sans Mono';-inkscape-font-specification:'DejaVu Sans Mono';letter-spacing:0px;fill:#d7e1f0;fill-opacity:1;stroke:#d9d9d9;stroke-width:1.00157;stroke-opacity:0.497409"
     d="m 145.911,70.910941 q 0.30469,0.0781 0.51954,0.296868 0.21484,0.21485 0.53515,0.863276 l 0.79297,1.593744 H 146.911 l -0.69531,-1.472644 q -0.30078,-0.628908 -0.54297,-0.808596 -0.23828,-0.18359 -0.625,-0.18359 h -0.7539 v 2.46483 h -0.79297 v -5.832006 h 1.625 q 0.96094,0 1.47265,0.433598 0.51172,0.433588 0.51172,1.253896 0,0.578126 -0.3164,0.945306 -0.3125,0.363288 -0.88282,0.445318 z m -1.61718,-2.42968 v 2.0703 h 0.86328 q 0.5664,0 0.84375,-0.253898 0.27734,-0.253908 0.27734,-0.777346 0,-0.503898 -0.29687,-0.769528 -0.29297,-0.269528 -0.85547,-0.269528 z m 4.22656,3.527324 v -2.710918 h 0.71875 v 2.710918 q 0,0.589848 0.20703,0.867186 0.21094,0.27734 0.64844,0.27734 0.50781,0 0.77734,-0.355458 0.26953,-0.35938 0.26953,-1.027346 v -2.47264 h 0.72266 v 4.367162 h -0.72266 v -0.656248 q -0.1914,0.378908 -0.52343,0.574218 -0.32813,0.19531 -0.76954,0.19531 -0.67187,0 -1,-0.4375 -0.32812,-0.441398 -0.32812,-1.332024 z m 8.16016,-1.054674 v 2.710918 h -0.72266 v -2.710918 q 0,-0.589848 -0.20703,-0.867188 -0.20703,-0.277348 -0.64844,-0.277348 -0.50391,0 -0.77734,0.359378 -0.26953,0.355468 -0.26953,1.023436 v 2.47264 h -0.71875 v -4.374982 h 0.71875 v 0.656248 q 0.1914,-0.374998 0.51953,-0.566398 0.32812,-0.19532 0.77734,-0.19532 0.66797,0 0.99609,0.441408 0.33204,0.437498 0.33204,1.328126 z"
     id="text1-9-4-8"
     inkscape:label="Label text 3 path"
     aria-label="Run" />
  <rect
     style="fill:#2d3c50;fill-opacity:1;stroke:#d7e1f0;stroke-width:1;stroke-opacity:0.49740899;stroke-dasharray:none"
     id="rect10"
     width="193.94086"
     height="28.940861"
     x="0.52956897"
     y="25.52957"
     inkscape:label="Display rectangle" />
  <text
     xml:space="preserve"
     id="text2"
     style="fill:#2d3c50;stroke:#d7e1f0;-inkscape-font-specification:'DejaVu Sans Mono';font-family:'DejaVu Sans Mono';font-size:8px;letter-spacing:0px;stroke-width:0;white-space:pre;shape-inside:url(#rect7)" />
</svg>
