<?xml version="1.0" encoding="UTF-8" standalone="no"?>
<svg
   width="390"
   height="380"
   viewBox="0 0 390 380"
   version="1.1"
   id="svg82"
   sodipodi:docname="LuaBoxEditor.svg"
   inkscape:version="1.3.2 (091e20e, 2023-11-25, custom)"
   xmlns:inkscape="http://www.inkscape.org/namespaces/inkscape"
   xmlns:sodipodi="http://sodipodi.sourceforge.net/DTD/sodipodi-0.dtd"
   xmlns:xlink="http://www.w3.org/1999/xlink"
   xmlns="http://www.w3.org/2000/svg"
   xmlns:svg="http://www.w3.org/2000/svg">
  <sodipodi:namedview
     id="namedview82"
     pagecolor="#ffffff"
     bordercolor="#000000"
     borderopacity="0.25"
     inkscape:showpageshadow="2"
     inkscape:pageopacity="0.0"
     inkscape:pagecheckerboard="0"
     inkscape:deskcolor="#d1d1d1"
     inkscape:zoom="1.0723684"
     inkscape:cx="-30.773007"
     inkscape:cy="255.04295"
     inkscape:window-width="1920"
     inkscape:window-height="1011"
     inkscape:window-x="-8"
     inkscape:window-y="-2"
     inkscape:window-maximized="1"
     inkscape:current-layer="svg82"
     showguides="true"
     inkscape:document-units="px">
    <sodipodi:guide
       position="97.5,310.99386"
       orientation="-1,0"
       id="guide3"
       inkscape:locked="false"
       inkscape:label=""
       inkscape:color="rgb(0,134,229)" />
  </sodipodi:namedview>
  <defs
     id="defs2">
    <rect
       x="-78.331291"
       y="130.08589"
       width="5.1288347"
       height="20.04908"
       id="rect7" />
    <rect
       x="86.72393"
       y="-11.889571"
       width="19.815952"
       height="38.233131"
       id="rect6" />
    <rect
       x="88.687675"
       y="5.4399505"
       width="36.925724"
       height="23.737967"
       id="rect5" />
    <rect
       x="55.95092"
       y="12.1227"
       width="38.699387"
       height="16.319019"
       id="rect3" />
    <rect
       x="62.944786"
       y="10.257669"
       width="48.490799"
       height="17.251534"
       id="rect1" />
    <linearGradient
       id="uuid-312421cb-ec79-48d0-8ea6-e8b674b74575"
       x1="97.500023"
       y1="0"
       x2="97.500023"
       y2="380"
       gradientUnits="userSpaceOnUse">
      <stop
         offset="0"
         stop-color="#2a2a2b"
         id="stop1"
         style="stop-color:#2c2c2f;stop-opacity:1;" />
      <stop
         offset="1"
         stop-color="#171717"
         id="stop2"
         style="stop-color:#3d3d3d;stop-opacity:1;" />
    </linearGradient>
    <linearGradient
       inkscape:collect="always"
       xlink:href="#uuid-312421cb-ec79-48d0-8ea6-e8b674b74575"
       id="linearGradient7"
       x1="97.589417"
       y1="1.9781655"
       x2="97.589424"
       y2="377.82932"
       gradientUnits="userSpaceOnUse"
       spreadMethod="reflect"
       gradientTransform="matrix(2.0000005,0,0,1,-4.0000018e-5,0)" />
  </defs>
  <rect
     x="3.9999999e-05"
     width="390"
     height="380"
     fill="url(#uuid-312421cb-ec79-48d0-8ea6-e8b674b74575)"
     id="rect2"
     inkscape:label="Background rectangle"
     style="fill:url(#linearGradient7);fill-opacity:1;stroke-width:1.41421"
     y="0" />
  <text
     xml:space="preserve"
     style="font-style:normal;font-variant:normal;font-weight:bold;font-stretch:normal;font-size:13.3333px;font-family:'Cascadia Code';-inkscape-font-specification:'Cascadia Code Bold';letter-spacing:0px;word-spacing:-4px;display:none;fill:#d7e1f0;fill-opacity:1;stroke:#808080;stroke-width:0.5;stroke-linejoin:bevel;stroke-dasharray:none;stroke-opacity:0.497409"
     x="71.386505"
     y="17.970028"
     id="text8-6"
     inkscape:label="Top text"><tspan
       sodipodi:role="line"
       id="tspan8"
       x="0"
       y="0"
       style="font-style:normal;font-variant:normal;font-weight:bold;font-stretch:normal;font-size:13.3333px;font-family:'DejaVu Sans Mono';-inkscape-font-specification:'DejaVu Sans Mono Bold';letter-spacing:0px;word-spacing:-4px;fill:#d7e1f0;fill-opacity:1;stroke:#808080;stroke-width:0.5;stroke-linecap:round;stroke-linejoin:round;stroke-dasharray:none;stroke-opacity:0.497409"
       dx="0">Lua Box</tspan></text>
  <path
     style="font-weight:bold;font-size:13.3333px;font-family:'DejaVu Sans Mono';-inkscape-font-specification:'DejaVu Sans Mono Bold';letter-spacing:0px;word-spacing:-4px;display:none;fill:#d7e1f0;stroke:#808080;stroke-width:0.5;stroke-linecap:round;stroke-linejoin:round;stroke-opacity:0.497409"
     d="M 72.851345,17.970028 V 8.2500004 h 1.920568 v 8.0273236 h 4.108063 v 1.692704 z m 7.604148,-2.545567 V 10.67838 h 1.907547 v 4.453113 q 0,0.787759 0.221354,1.1263 0.221353,0.33854 0.735675,0.33854 0.514322,0 0.800779,-0.455728 0.292968,-0.455728 0.292968,-1.276038 V 10.67838 h 1.907547 v 7.291648 h -1.907547 v -1.080727 q -0.201822,0.605468 -0.690102,0.937498 -0.48177,0.332031 -1.165362,0.332031 -1.041664,0 -1.575517,-0.690103 -0.527342,-0.690102 -0.527342,-2.044266 z m 11.54294,-0.878904 q -1.067706,0 -1.490882,0.273437 -0.423176,0.273437 -0.423176,0.937498 0,0.49479 0.292968,0.787758 0.292968,0.292968 0.794269,0.292968 0.755206,0 1.171872,-0.566405 0.416666,-0.572915 0.416666,-1.595048 v -0.130208 z m 2.656243,-0.735675 v 4.160146 H 92.76015 v -0.8138 q -0.345052,0.48177 -0.885415,0.742186 -0.540363,0.260416 -1.191403,0.260416 -1.243487,0 -1.940099,-0.657551 -0.690103,-0.65755 -0.690103,-1.835933 0,-1.276038 0.826821,-1.881505 0.826821,-0.611978 2.558587,-0.611978 h 1.321612 v -0.31901 q 0,-0.462238 -0.338541,-0.696612 -0.332031,-0.240885 -0.983071,-0.240885 -0.683592,0 -1.328121,0.175781 -0.63802,0.16927 -1.334632,0.546873 v -1.6276 q 0.631508,-0.260416 1.282548,-0.384114 0.65104,-0.123697 1.380205,-0.123697 1.77734,0 2.493484,0.722654 0.722654,0.722655 0.722654,2.584629 z m 7.510384,-0.253905 v 2.877596 h 1.27604 q 0.91797,0 1.28255,-0.312499 0.37109,-0.312499 0.37109,-1.087237 0,-0.787758 -0.38411,-1.132809 -0.38411,-0.345051 -1.26953,-0.345051 z m 0,-3.7890533 v 2.2591093 h 1.27604 q 0.72917,0 1.03516,-0.260416 0.3125,-0.260416 0.3125,-0.859373 0,-0.598957 -0.31901,-0.865884 -0.3125,-0.2734363 -1.02865,-0.2734363 z M 100.3096,8.2369796 h 3.1315 q 1.62109,0 2.43489,0.618488 0.82031,0.6119776 0.82031,1.8359324 0,0.937498 -0.48177,1.464841 -0.48177,0.527342 -1.41275,0.611977 1.11327,0.110677 1.67317,0.748696 0.5664,0.638019 0.5664,1.78385 0,1.406246 -0.84635,2.037755 -0.84635,0.631509 -2.7539,0.631509 h -3.1315 z m 11.22393,3.8150944 q -0.68359,0 -1.07421,0.605467 -0.39063,0.598957 -0.39063,1.673173 0,1.074216 0.39063,1.679683 0.39062,0.598957 1.07421,0.598957 0.6901,0 1.08073,-0.598957 0.39062,-0.605467 0.39062,-1.679683 0,-1.074216 -0.39062,-1.673173 -0.39063,-0.605467 -1.08073,-0.605467 z m -3.37239,2.27864 q 0,-1.764318 0.91146,-2.792961 0.91797,-1.035154 2.46093,-1.035154 1.54948,0 2.46093,1.035154 0.91797,1.028643 0.91797,2.792961 0,1.764319 -0.91797,2.799472 -0.91145,1.028644 -2.46093,1.028644 -1.54296,0 -2.46093,-1.028644 -0.91146,-1.035153 -0.91146,-2.799472 z m 14.84371,-3.652334 -2.45442,3.489574 2.66927,3.802074 h -2.22656 l -1.43229,-2.454421 -1.42578,2.454421 h -2.22655 l 2.6953,-3.802074 -2.48046,-3.489574 h 2.22656 l 1.21093,2.174473 1.21745,-2.174473 z"
     id="text3"
     inkscape:label="Top text"
     aria-label="Lua Box" />
  <rect
     style="display:none;fill:#2d3c50;fill-opacity:1;stroke:#d7e1f0;stroke-width:1;stroke-dasharray:none;stroke-opacity:0.497409"
     id="rect10"
     width="193.94086"
     height="28.940861"
     x="0.52956897"
     y="25.52957"
     inkscape:label="Display rectangle" />
</svg>
